<?xml version="1.0" standalone="no"?><!-- Generator: Adobe Fireworks CS6, Export SVG Extension by Aaron Beall (http://fireworks.abeall.com) . Version: 0.6.1  --><!DOCTYPE svg PUBLIC "-//W3C//DTD SVG 1.1//EN" "http://www.w3.org/Graphics/SVG/1.1/DTD/svg11.dtd"><svg id="Untitled-Page%201" viewBox="0 0 160 54" style="background-color:#ffffff00" version="1.1"	xmlns="http://www.w3.org/2000/svg" xmlns:xlink="http://www.w3.org/1999/xlink" xml:space="preserve"	x="0px" y="0px" width="160px" height="54px">	<defs>		<linearGradient id="gradient1" x1="49.375%" y1="55.8333%" x2="49.375%" y2="100%">			<stop stop-color="#00b9e1" stop-opacity="1" offset="0%"/>			<stop stop-color="#58d3ef" stop-opacity="1" offset="100%"/>		</linearGradient>	</defs>	<g id="Layer%201">		<path d="M 0 -66 L 160 -66 L 160 54 L 0 54 L 0 -66 Z" fill="url(#gradient1)"/>		<path d="M 112.6553 24.5459 C 112.5285 23.461 112.1321 22.1802 111.1363 21.1162 C 109.8801 19.7721 107.6926 19.0312 105.5695 19.0312 C 100.8384 19.0312 98.173 21.8339 98.173 25.3102 C 98.173 28.8075 101.137 31.2643 105.6863 31.2643 C 110.838 31.2643 112.8056 28.0313 112.7889 26.0819 L 108.4949 27.1618 C 108.526 28.0078 107.1841 28.8307 105.8369 28.8307 C 104.1078 28.8307 103.112 28.078 102.9305 26.9605 L 112.6553 24.5459 ZM 102.8253 24.3891 C 102.9592 22.8204 103.3196 21.2939 105.7484 21.2544 C 107.6639 21.2237 108.1605 22.5729 108.2539 23.0403 L 102.8253 24.3891 ZM 49.0592 23.7815 C 49.0592 22.7153 48.3403 21.6728 46.7521 21.6728 C 44.3282 21.6728 44.0296 23.5267 44.0296 25.0319 C 44.0296 26.4699 44.0584 28.506 46.5732 28.506 C 48.1302 28.506 48.9088 27.5567 49.0592 26.4699 L 53.1956 27.033 C 52.6654 29.5321 50.4667 31.5714 45.88 31.5714 C 41.2933 31.5714 39 28.7867 39 25.3102 C 39 21.6961 41.8134 19.0825 46.6041 19.0779 C 50.1864 19.0756 52.6152 20.7096 53.1956 23.3187 L 49.0592 23.7815 ZM 118.12 19 L 118.12 21.2857 L 118.12 21.2857 C 118.12 20.1429 119.0581 19.2039 120.952 19.0335 C 123.6698 18.7854 125 19.9968 125 19.9968 L 123.4333 22.8018 C 122.9033 22.4862 121.6996 22.2383 120.7347 22.3905 C 118.4134 22.7551 118.12 24.7143 118.12 27 L 118.12 31.5714 L 113.5333 31.5714 L 113.5795 19.2625 L 118.12 19 ZM 83.7672 19.272 L 83.7672 35 L 88.1687 35 L 88.1687 29.7423 L 88.2285 29.7423 C 88.8565 30.7851 90.2345 31.2715 91.7321 31.2715 C 96.1619 31.2715 97.5403 28.0735 97.5403 25.1769 C 97.5403 23.7416 97.361 22.3298 96.4009 21.0768 C 95.3838 19.7348 93.946 19.038 91.9111 19.038 C 89.9648 19.038 88.7658 19.7112 87.9585 21.0088 L 87.899 21.0088 L 87.899 19.272 L 83.7672 19.272 ZM 88.1687 24.4358 C 88.1687 23.7416 88.1687 23.0239 88.6179 22.3975 C 89.007 21.8176 89.7258 21.4485 90.5929 21.4485 C 92.8091 21.4485 92.9285 23.8795 92.9285 25.0859 C 92.9285 26.2895 92.8378 28.861 90.5618 28.861 C 89.7856 28.861 89.007 28.492 88.5865 27.9797 C 88.0779 27.3323 88.1687 26.3366 88.1687 25.5954 L 88.1687 24.4358 ZM 75.7334 19.038 C 71.093 19.038 68.5162 21.7033 68.5162 25.1326 C 68.5162 28.5387 71.1067 31.5714 75.6933 31.5714 C 80.28 31.5714 83.0675 28.6063 83.0675 25.2472 C 83.0675 21.7731 80.493 19.038 75.7334 19.038 ZM 75.7621 21.2871 C 76.7817 21.2871 77.4982 21.5864 77.8588 22.3508 C 78.2768 23.232 78.3365 24.3424 78.3365 25.2704 C 78.3365 26.6825 77.9867 29.2857 75.6933 29.2857 C 73.4 29.2857 73.2495 26.1263 73.2495 24.7843 C 73.2495 23.4401 73.3976 21.2871 75.7621 21.2871 ZM 60.7424 19.038 C 56.1022 19.038 53.5276 21.7033 53.5276 25.1326 C 53.5276 28.5387 56.2 31.5714 60.7867 31.5714 C 65.3733 31.5714 68.0767 28.6063 68.0767 25.2472 C 68.0767 21.7731 65.5022 19.038 60.7424 19.038 ZM 60.771 21.2871 C 61.7909 21.2871 62.5097 21.5864 62.868 22.3508 C 63.286 23.232 63.348 24.3424 63.348 25.2704 C 63.348 26.6825 63.08 29.2857 60.7867 29.2857 C 58.4933 29.2857 58.2563 26.1263 58.2563 24.7843 C 58.2563 23.4401 58.4068 21.2871 60.771 21.2871 Z" fill="#ffffff"/>	</g></svg>